<svg width="17" height="22" viewBox="0 0 17 22" fill="none" xmlns="http://www.w3.org/2000/svg">
<path d="M1.81183 20.511C1.81183 20.511 -1.63903 13.3473 3.12222 9.37232C7.86454 5.41317 15.0471 6.48934 16.1392 0.417702C16.1392 0.417702 18.6727 11.8622 11.9021 15.444L14.7392 14.2582C14.7392 14.2582 12.732 18.458 8.14559 19.7338H10.8975C10.8975 19.7338 7.53402 21.4283 2.81647 21.0788C2.81647 21.0788 2.03017 16.9601 5.69946 14.2582C9.36866 11.5563 13.5775 10.7918 13.8241 7.31934C13.8241 7.31934 13.7368 9.63445 9.84913 11.1196C5.9615 12.6048 1.28766 13.8117 1.81183 20.511Z" fill="#81CC2A"/>
</svg>
