<svg width="12" height="14" viewBox="0 0 12 14" fill="none" xmlns="http://www.w3.org/2000/svg">
<path fill-rule="evenodd" clip-rule="evenodd" d="M0.534912 5.64893C0.534912 2.58235 3.09111 0.10376 6.18309 0.10376C9.28379 0.10376 11.84 2.58235 11.84 5.64893C11.84 7.19422 11.2794 8.62885 10.3567 9.84481C9.33877 11.1861 8.08414 12.3547 6.67193 13.272C6.34872 13.484 6.05702 13.5 5.70229 13.272C4.28203 12.3547 3.02741 11.1861 2.0182 9.84481C1.09483 8.62885 0.534912 7.19422 0.534912 5.64893ZM4.3216 5.82159C4.3216 6.8489 5.15779 7.65687 6.18309 7.65687C7.20905 7.65687 8.0533 6.8489 8.0533 5.82159C8.0533 4.80229 7.20905 3.95498 6.18309 3.95498C5.15779 3.95498 4.3216 4.80229 4.3216 5.82159Z" fill="#FF5555"/>
</svg>
