<svg width="21" height="21" viewBox="0 0 21 21" fill="none" xmlns="http://www.w3.org/2000/svg">
<path d="M10.8767 9.38915C10.8767 9.38915 10.9145 9.17281 10.7948 6.18386C10.6036 1.41013 12.7543 -0.649126 15.641 0.217747C18.5276 1.08462 16.6217 3.64923 16.6217 3.64923C16.6217 3.64923 20.3198 3.54733 20.6106 5.95933C21.0655 9.73188 10.8767 9.38915 10.8767 9.38915Z" fill="#81CC2A"/>
<path d="M10.3666 10.0946C10.3666 10.0946 9.91905 10.1641 6.92793 10.2063C2.15086 10.2737 0.211052 12.5327 1.23287 15.3682C2.25461 18.2037 4.71231 16.1618 4.71231 16.1618C4.71231 16.1618 4.8107 19.86 7.2349 20.0199C11.0266 20.27 10.3666 10.0946 10.3666 10.0946Z" fill="#81CC2A"/>
<path d="M10.864 10.0085C10.864 10.0085 11.3157 10.0431 14.301 9.85325C19.0689 9.55012 21.178 11.6519 20.3792 14.5581C19.5803 17.4644 16.9717 15.6191 16.9717 15.6191C16.9717 15.6191 17.1603 19.3137 14.7558 19.6611C10.9949 20.2044 10.864 10.0085 10.864 10.0085Z" fill="#81CC2A"/>
<path d="M10.4106 9.50158C10.4106 9.50158 10.3412 9.05403 10.299 6.06291C10.2315 1.28584 7.97256 -0.65397 5.13706 0.36785C2.30148 1.38959 4.34344 3.84728 4.34344 3.84728C4.34344 3.84728 0.645247 3.9456 0.485371 6.36988C0.235282 10.1615 10.4106 9.50158 10.4106 9.50158Z" fill="#81CC2A"/>
</svg>
