<svg width="32" height="33" viewBox="0 0 32 33" fill="none" xmlns="http://www.w3.org/2000/svg">
<path d="M12.2096 28.1952V24.1062C12.2096 23.0662 13.0575 22.2211 14.108 22.2141H17.9561C19.0116 22.2141 19.8673 23.0613 19.8673 24.1062V24.1062V28.2079C19.8671 29.091 20.579 29.8127 21.4707 29.8334H24.0361C26.5935 29.8334 28.6666 27.7809 28.6666 25.2491V25.2491V13.6171C28.653 12.6211 28.1806 11.6858 27.3839 11.0774L18.6103 4.08042C17.0732 2.86211 14.8883 2.86211 13.3512 4.08042L4.61601 11.0901C3.81632 11.6961 3.34316 12.6329 3.33331 13.6298V25.2491C3.33331 27.7809 5.40648 29.8334 7.96386 29.8334H10.5293C11.4431 29.8334 12.1839 29.0999 12.1839 28.1952V28.1952" stroke="white" stroke-width="1.5" stroke-linecap="round" stroke-linejoin="round"/>
</svg>
