<svg width="32" height="33" viewBox="0 0 32 33" fill="none" xmlns="http://www.w3.org/2000/svg">
<circle cx="15.4386" cy="10.204" r="6.37071" stroke="white" stroke-width="1.5" stroke-linecap="round" stroke-linejoin="round"/>
<path fill-rule="evenodd" clip-rule="evenodd" d="M5.33337 25.4352C5.33165 24.9873 5.43181 24.5449 5.62627 24.1415C6.23649 22.9211 7.95732 22.2742 9.38523 21.9813C10.415 21.7615 11.4591 21.6147 12.5096 21.542C14.4545 21.3711 16.4106 21.3711 18.3555 21.542C19.4059 21.6156 20.4499 21.7624 21.4798 21.9813C22.9077 22.2742 24.6286 22.86 25.2388 24.1415C25.6298 24.9639 25.6298 25.9186 25.2388 26.741C24.6286 28.0225 22.9077 28.6083 21.4798 28.889C20.4512 29.1179 19.4068 29.2688 18.3555 29.3406C16.7725 29.4748 15.1821 29.4992 13.5958 29.4138C13.2296 29.4138 12.8757 29.4138 12.5096 29.3406C11.4622 29.2697 10.4218 29.1187 9.39744 28.889C7.95732 28.6083 6.2487 28.0225 5.62627 26.741C5.43281 26.3329 5.33275 25.8868 5.33337 25.4352Z" stroke="white" stroke-width="1.5" stroke-linecap="round" stroke-linejoin="round"/>
</svg>
