<svg width="32" height="33" viewBox="0 0 32 33" fill="none" xmlns="http://www.w3.org/2000/svg">
<path d="M23.4598 15.0758C25.5963 15.0758 27.3294 13.344 27.3294 11.2075C27.3294 9.07106 25.5963 7.33917 23.4598 7.33917" stroke="white" stroke-width="1.5" stroke-linecap="round" stroke-linejoin="round"/>
<path d="M25.2388 19.2797C25.8768 19.3237 26.5111 19.4141 27.1357 19.5547C28.0034 19.7246 29.0472 20.0802 29.4188 20.8588C29.6559 21.3574 29.6559 21.938 29.4188 22.4379C29.0484 23.2164 28.0034 23.5709 27.1357 23.7493" stroke="white" stroke-width="1.5" stroke-linecap="round" stroke-linejoin="round"/>
<path d="M8.38665 15.0758C6.2502 15.0758 4.51709 13.344 4.51709 11.2075C4.51709 9.07106 6.2502 7.33917 8.38665 7.33917" stroke="white" stroke-width="1.5" stroke-linecap="round" stroke-linejoin="round"/>
<path d="M6.60771 19.2797C5.96971 19.3237 5.33538 19.4141 4.71082 19.5547C3.84304 19.7246 2.79927 20.0802 2.42893 20.8588C2.1906 21.3574 2.1906 21.938 2.42893 22.4379C2.79804 23.2164 3.84304 23.5709 4.71082 23.7493" stroke="white" stroke-width="1.5" stroke-linecap="round" stroke-linejoin="round"/>
<path fill-rule="evenodd" clip-rule="evenodd" d="M15.917 20.1127C20.2461 20.1127 23.9446 20.7678 23.9446 23.3895C23.9446 26.01 20.2706 26.6895 15.917 26.6895C11.5867 26.6895 7.88947 26.0344 7.88947 23.4127C7.88947 20.7911 11.5635 20.1127 15.917 20.1127Z" stroke="white" stroke-width="1.5" stroke-linecap="round" stroke-linejoin="round"/>
<path fill-rule="evenodd" clip-rule="evenodd" d="M15.917 16.3732C13.0619 16.3732 10.7727 14.084 10.7727 11.2276C10.7727 8.37253 13.0619 6.08331 15.917 6.08331C18.7721 6.08331 21.0613 8.37253 21.0613 11.2276C21.0613 14.084 18.7721 16.3732 15.917 16.3732Z" stroke="white" stroke-width="1.5" stroke-linecap="round" stroke-linejoin="round"/>
</svg>
