<svg width="32" height="33" viewBox="0 0 32 33" fill="none" xmlns="http://www.w3.org/2000/svg">
<path fill-rule="evenodd" clip-rule="evenodd" d="M4.66666 14.257C4.66666 8.12388 9.79183 3.16669 15.9913 3.16669C22.2081 3.16669 27.3333 8.12388 27.3333 14.257C27.3333 17.3476 26.2093 20.2169 24.3593 22.6488C22.3184 25.3314 19.8029 27.6686 16.9714 29.5033C16.3233 29.9272 15.7385 29.9592 15.0273 29.5033C12.1796 27.6686 9.66411 25.3314 7.64066 22.6488C5.7893 20.2169 4.66666 17.3476 4.66666 14.257ZM12.259 14.6024C12.259 16.657 13.9355 18.2729 15.9913 18.2729C18.0483 18.2729 19.741 16.657 19.741 14.6024C19.741 12.5637 18.0483 10.8691 15.9913 10.8691C13.9355 10.8691 12.259 12.5637 12.259 14.6024Z" fill="white"/>
</svg>
