<svg width="32" height="33" viewBox="0 0 32 33" fill="none" xmlns="http://www.w3.org/2000/svg">
<path d="M12.1797 28.1978V24.1208C12.1797 23.0801 13.0295 22.2364 14.0779 22.2364H17.9101C18.4136 22.2364 18.8964 22.435 19.2524 22.7884C19.6083 23.1418 19.8083 23.6211 19.8083 24.1208V28.1978C19.8052 28.6305 19.9761 29.0465 20.2831 29.3536C20.5902 29.6607 21.008 29.8334 21.4439 29.8333H24.0584C25.2795 29.8365 26.4516 29.3571 27.3162 28.5011C28.1808 27.645 28.6666 26.4827 28.6666 25.2705V13.6558C28.6666 12.6766 28.2294 11.7478 27.4728 11.1196L18.5787 4.06785C17.0315 2.83144 14.8148 2.87136 13.3138 4.16266L4.62266 11.1196C3.8303 11.7293 3.35672 12.6609 3.33331 13.6558V25.2586C3.33331 27.7852 5.39649 29.8333 7.94154 29.8333H10.4964C11.4016 29.8334 12.1373 29.1083 12.1439 28.2097L12.1797 28.1978Z" fill="white"/>
</svg>
