<svg width="32" height="33" viewBox="0 0 32 33" fill="none" xmlns="http://www.w3.org/2000/svg">
<path fill-rule="evenodd" clip-rule="evenodd" d="M21.5444 11.4771C21.5444 14.61 19.0469 17.1221 15.932 17.1221C12.8172 17.1221 10.3197 14.61 10.3197 11.4771C10.3197 8.343 12.8172 5.83331 15.932 5.83331C19.0469 5.83331 21.5444 8.343 21.5444 11.4771ZM15.932 27.1666C11.3571 27.1666 7.45079 26.4414 7.45079 23.5402C7.45079 20.6378 11.3321 19.8861 15.932 19.8861C20.507 19.8861 24.4133 20.6114 24.4133 23.5138C24.4133 26.4149 20.532 27.1666 15.932 27.1666ZM23.9428 11.5789C23.9428 13.176 23.4664 14.6638 22.6307 15.9007C22.5448 16.0279 22.6212 16.1997 22.7728 16.2261C22.9817 16.2621 23.1978 16.2825 23.4175 16.2885C25.6082 16.3462 27.5746 14.928 28.1178 12.793C28.9224 9.62163 26.5598 6.77451 23.5512 6.77451C23.2241 6.77451 22.9113 6.80933 22.6069 6.87177C22.5651 6.88138 22.5209 6.90059 22.497 6.93782C22.4684 6.98345 22.4899 7.04469 22.5185 7.08432C23.4223 8.35837 23.9428 9.91222 23.9428 11.5789ZM27.571 18.5167C29.043 18.8061 30.0112 19.3969 30.4124 20.2555C30.7514 20.9604 30.7514 21.7781 30.4124 22.4818C29.7987 23.8135 27.8205 24.241 27.0516 24.3515C26.8929 24.3755 26.7651 24.2374 26.7818 24.0777C27.1746 20.3876 24.0502 18.638 23.242 18.2357C23.2074 18.2177 23.2002 18.1901 23.2038 18.1733C23.2062 18.1613 23.2205 18.1421 23.2468 18.1385C24.9958 18.1061 26.8761 18.3462 27.571 18.5167ZM8.58282 16.2884C8.80249 16.2824 9.01739 16.2632 9.22751 16.226C9.37913 16.1995 9.45554 16.0278 9.36958 15.9005C8.53387 14.6637 8.05752 13.1759 8.05752 11.5788C8.05752 9.9121 8.57805 8.35825 9.48181 7.0842C9.51046 7.04457 9.53076 6.98333 9.5033 6.9377C9.47942 6.90167 9.43405 6.88126 9.39346 6.87165C9.08783 6.80921 8.77503 6.77439 8.44791 6.77439C5.43936 6.77439 3.07669 9.62151 3.88256 12.7928C4.42577 14.9279 6.39207 16.346 8.58282 16.2884ZM8.79593 18.1726C8.79951 18.1906 8.79235 18.217 8.75892 18.2362C7.94947 18.6385 4.82512 20.3881 5.2179 24.077C5.23461 24.2379 5.10806 24.3748 4.94928 24.3519C4.18043 24.2415 2.20218 23.814 1.58853 22.4823C1.24828 21.7774 1.24828 20.9609 1.58853 20.256C1.98967 19.3974 2.95671 18.8066 4.42875 18.516C5.12478 18.3467 7.00393 18.1065 8.75414 18.139C8.78041 18.1426 8.79354 18.1618 8.79593 18.1726Z" fill="white"/>
</svg>
